# xmcd
#
# Track frame offsets: 
#        150
#        26515
#        51610
#        80102
#        108117
#        135182
#        161750
#        187850
#        209702
#        229207
#        245940
#
# Disc length: 3538 seconds
#
# Revision: 8
# Processed by: cddbd v1.5.2PL0 Copyright (c) Steve Scherf et al.
# Submitted via: ExactAudioCopy v1.3
#
DISCID=9b0dd00b
DTITLE=Amethystium - Aphelion
DYEAR=2003
DGENRE=New Age
TTITLE0=Shadow to Light
TTITLE1=Garden of Sakuntala
TTITLE2=Exultation
TTITLE3=Ad Astra
TTITLE4=Gates of Morpheus
TTITLE5=Autumn Interlude
TTITLE6=Elvensong
TTITLE7=Shibumi
TTITLE8=Hymnody
TTITLE9=Withdrawal
TTITLE10=Berceuse
EXTD=
EXTT0=
EXTT1=
EXTT2=
EXTT3=
EXTT4=
EXTT5=
EXTT6=
EXTT7=
EXTT8=
EXTT9=
EXTT10=
PLAYORDER=
